# 3ds Max Wavefront OBJ Exporter v0.97b - (c)2007 guruware
# File Created: 09.01.2013 23:55:47

#
# object skybox
#

v  -500.0000 0.0000 -500.0000
v  -500.0000 0.0000 500.0000
v  500.0000 0.0000 -500.0000
v  500.0000 0.0000 500.0000
v  500.0000 1000.0000 500.0000
v  -500.0000 1000.0000 500.0000
v  500.0000 1000.0000 -500.0000
v  -500.0000 1000.0000 -500.0000
# 8 vertices

vn 0.0000 1.0000 -0.0000
vn 0.0000 -1.0000 -0.0000
vn 0.0000 0.0000 -1.0000
vn -1.0000 0.0000 -0.0000
vn 0.0000 0.0000 1.0000
vn 1.0000 0.0000 -0.0000
# 6 vertex normals

vt 0.0000 0.6666 0.0000
vt 0.0000 0.3333 0.0000
vt 0.2500 0.3333 0.0000
vt 0.2500 0.0000 0.0000
vt 0.5000 0.0000 0.0000
vt 0.5000 0.3333 0.0000
vt 0.7500 0.3333 0.0000
vt 1.0000 0.3333 0.0000
vt 1.0000 0.6666 0.0000
vt 0.7500 0.6666 0.0000
vt 0.5000 0.6666 0.0000
vt 0.5000 1.0000 0.0000
vt 0.2500 1.0000 0.0000
vt 0.2500 0.6666 0.0000
# 14 texture coords

g skybox
s 1
f 1/13/1 2/14/1 3/12/1 
f 4/11/1 3/12/1 2/14/1 
s 32
f 5/6/2 6/3/2 7/5/2 
f 8/4/2 7/5/2 6/3/2 
s 2
f 4/11/3 2/14/3 5/6/3 
f 6/3/3 5/6/3 2/14/3 
s 16
f 3/10/4 4/11/4 7/7/4 
f 5/6/4 7/7/4 4/11/4 
s 8
f 1/9/5 3/10/5 8/8/5 
f 7/7/5 8/8/5 3/10/5 
s 4
f 2/14/6 1/1/6 6/3/6 
f 8/2/6 6/3/6 1/1/6 
# 12 faces

